mtllib cmn_obj_springegg_SD.mtl

v 0.914795 -2.633301 0.000000
v 0.457275 -2.633301 0.792236
v -0.000000 -2.862549 0.000000
v 1.372070 -2.006348 0.792236
v 1.584228 -2.006348 0.000000
v 1.584229 -1.150146 0.914795
v 1.829346 -1.150147 0.000000
v 1.372070 -0.293945 0.792236
v 1.584229 -0.293945 0.000000
v 0.998535 0.273193 0.000000
v 1.372070 -0.293945 -0.792236
v 0.499268 0.273193 -0.864746
v -0.457275 -2.633301 0.792236
v -0.000000 -2.862549 0.000000
v -0.000000 -2.006348 1.584229
v 0.792236 -2.006348 1.372070
v -0.000000 -1.150146 1.829346
v 0.914795 -1.150146 1.584229
v -0.000000 -0.293945 1.584229
v 0.792236 -0.293945 1.372070
v 0.499268 0.273193 0.864746
v -0.914795 -2.633301 0.000000
v -0.000000 -2.862549 0.000000
v -1.372070 -2.006348 0.792236
v -0.792236 -2.006348 1.372070
v -1.584229 -1.150146 0.914795
v -0.914795 -1.150146 1.584229
v -1.372070 -0.293945 0.792236
v -0.792236 -0.293945 1.372070
v -0.499268 0.273193 0.864746
v -0.457275 -2.633301 -0.792236
v -0.000000 -2.862549 0.000000
v -1.372070 -2.006348 -0.792236
v -1.584229 -2.006348 0.000000
v -1.584229 -1.150146 -0.914795
v -1.829346 -1.150146 0.000000
v -1.372070 -0.293945 -0.792236
v -1.584229 -0.293945 0.000000
v -0.998535 0.273193 0.000000
v 0.457275 -2.633301 -0.792236
v -0.000000 -2.862549 0.000000
v 1.372070 -2.006348 -0.792236
v 0.792236 -2.006348 -1.372070
v 1.584229 -1.150146 -0.914795
v 0.914795 -1.150146 -1.584229
v 0.792236 -0.293945 -1.372070
v -0.000000 -0.293945 -1.584229
v -0.499268 0.273193 -0.864746
v -0.792236 -0.293945 -1.372070
v -0.000000 -0.293945 -1.584229
v -0.914795 -1.150146 -1.584229
v -0.000000 -1.150146 -1.829346
v -0.792236 -2.006348 -1.372070
v -0.000000 -2.006348 -1.584229
v -0.000000 -2.006348 -1.584229
v -0.000000 -1.150146 -1.829346
v -0.457275 -2.633301 -0.792236
v -0.000000 -2.862549 0.000000
v -0.499268 0.273193 -0.864746
v -1.000732 4.139648 0.000000
v -0.500488 4.139648 -0.866699
v -0.998535 0.273193 0.000000
v -0.500488 4.139648 0.866699
v -0.499268 0.273193 0.864746
v 0.500488 4.139648 0.866699
v 0.499268 0.273193 0.864746
v 1.000733 4.139648 0.000000
v 0.998535 0.273193 0.000000
v -0.500488 4.139648 -0.866699
v 0.499268 0.273193 -0.864746
v -0.499268 0.273193 -0.864746
v 0.500488 4.139648 -0.866699
v 0.499268 0.273193 -0.864746

vt 0.301300 0.386810
vt 0.301300 0.371216
vt 0.364868 0.378998
vt 0.233643 0.386810
vt 0.233643 0.394623
vt 0.168030 0.386810
vt 0.168030 0.394623
vt 0.076630 0.386810
vt 0.076630 0.394623
vt 0.004578 0.402405
vt 0.076630 0.402405
vt 0.004578 0.417999
vt 0.301300 0.355621
vt 0.364868 0.363403
vt 0.233643 0.371216
vt 0.233643 0.378998
vt 0.168030 0.371216
vt 0.168030 0.378998
vt 0.076630 0.371216
vt 0.076630 0.378998
vt 0.004578 0.386810
vt 0.301300 0.340027
vt 0.364868 0.347809
vt 0.233643 0.355621
vt 0.233643 0.363403
vt 0.168030 0.355621
vt 0.168030 0.363403
vt 0.076630 0.355621
vt 0.076630 0.363403
vt 0.004578 0.371216
vt 0.301300 0.324402
vt 0.364868 0.332214
vt 0.233643 0.340027
vt 0.233643 0.347809
vt 0.168030 0.340027
vt 0.168030 0.347809
vt 0.076630 0.340027
vt 0.076630 0.347809
vt 0.004578 0.355621
vt 0.301300 0.402405
vt 0.364868 0.394623
vt 0.233643 0.402405
vt 0.233643 0.410217
vt 0.168030 0.402405
vt 0.168030 0.410217
vt 0.076630 0.410217
vt 0.076630 0.417999
vt 0.004578 0.340027
vt 0.076630 0.332214
vt 0.076630 0.324402
vt 0.168030 0.332214
vt 0.168030 0.324402
vt 0.233643 0.332214
vt 0.233643 0.324402
vt 0.233643 0.417999
vt 0.168030 0.417999
vt 0.301300 0.417999
vt 0.364868 0.410217
vt 0.370972 0.455048
vt 0.013428 0.505859
vt 0.013428 0.455048
vt 0.370972 0.505859
vt 0.013428 0.558228
vt 0.370972 0.556763
vt 0.013428 0.607391
vt 0.370972 0.607330
vt 0.013428 0.558044
vt 0.370972 0.556610
vt 0.013428 0.454895
vt 0.370972 0.505707
vt 0.370972 0.454895
vt 0.013428 0.505707
vt 0.004578 0.324402

vn 0.492809 -0.870137 0.000000
vn 0.246400 -0.870121 0.426821
vn -0.000000 -1.000000 0.000000
vn 0.743441 -0.512901 0.429218
vn 0.864394 -0.502816 0.000000
vn 0.866026 -0.000000 0.499999
vn 1.000000 -0.000000 0.000000
vn 0.744503 0.510862 0.429808
vn 0.868164 0.496277 0.000000
vn 0.866230 0.499645 0.000000
vn 0.744503 0.510862 -0.429808
vn 0.433108 0.499637 -0.750187
vn -0.246400 -0.870121 0.426821
vn -0.000000 -1.000000 0.000000
vn -0.000000 -0.512879 0.858461
vn 0.432190 -0.502808 0.748596
vn 0.000000 0.000000 1.000000
vn 0.499999 -0.000000 0.866026
vn 0.000000 0.510856 0.859666
vn 0.434089 0.496285 0.751843
vn 0.433108 0.499637 0.750187
vn -0.492809 -0.870137 0.000000
vn -0.000000 -1.000000 0.000000
vn -0.743441 -0.512901 0.429218
vn -0.432190 -0.502808 0.748596
vn -0.866026 0.000000 0.499999
vn -0.499999 0.000000 0.866026
vn -0.744503 0.510862 0.429808
vn -0.434089 0.496285 0.751843
vn -0.433108 0.499637 0.750187
vn -0.246400 -0.870121 -0.426821
vn -0.000000 -1.000000 0.000000
vn -0.743441 -0.512901 -0.429218
vn -0.864394 -0.502816 0.000000
vn -0.866026 0.000000 -0.499999
vn -1.000000 0.000000 0.000000
vn -0.744503 0.510862 -0.429808
vn -0.868164 0.496277 0.000000
vn -0.866230 0.499645 0.000000
vn 0.246400 -0.870121 -0.426821
vn -0.000000 -1.000000 0.000000
vn 0.743441 -0.512901 -0.429218
vn 0.432190 -0.502808 -0.748596
vn 0.866026 -0.000000 -0.499999
vn 0.499999 -0.000000 -0.866026
vn 0.434089 0.496285 -0.751843
vn 0.000000 0.510856 -0.859666
vn -0.433108 0.499637 -0.750187
vn -0.434089 0.496285 -0.751843
vn 0.000000 0.510856 -0.859666
vn -0.499999 0.000000 -0.866026
vn 0.000000 0.000000 -1.000000
vn -0.432190 -0.502808 -0.748596
vn -0.000000 -0.512879 -0.858461
vn -0.000000 -0.512879 -0.858461
vn 0.000000 0.000000 -1.000000
vn -0.246400 -0.870121 -0.426821
vn -0.000000 -1.000000 0.000000
vn -0.433108 0.499637 -0.750187
vn -1.000000 -0.000610 0.000000
vn -0.499999 -0.000610 -0.866026
vn -0.866230 0.499645 0.000000
vn -0.499999 -0.000610 0.866026
vn -0.433108 0.499637 0.750187
vn 0.499999 -0.000610 0.866026
vn 0.433108 0.499637 0.750187
vn 1.000000 -0.000610 0.000000
vn 0.866230 0.499645 0.000000
vn -0.499999 -0.000610 -0.866026
vn 0.433108 0.499637 -0.750187
vn -0.433108 0.499637 -0.750187
vn 0.499999 -0.000610 -0.866026
vn 0.433108 0.499637 -0.750187

g polygon0
s 1
usemtl mat1
f 1/1/1 2/2/2 3/3/3
f 1/1/1 4/4/4 2/2/2
f 5/5/5 4/4/4 1/1/1
f 5/5/5 6/6/6 4/4/4
f 7/7/7 6/6/6 5/5/5
f 7/7/7 8/8/8 6/6/6
f 9/9/9 8/8/8 7/7/7
f 9/9/9 10/10/10 8/8/8
f 11/11/11 10/10/10 9/9/9
f 11/11/11 12/12/12 10/10/10
f 2/2/2 13/13/13 14/14/14
f 2/2/2 15/15/15 13/13/13
f 16/16/16 15/15/15 2/2/2
f 16/16/16 17/17/17 15/15/15
f 18/18/18 17/17/17 16/16/16
f 18/18/18 19/19/19 17/17/17
f 20/20/20 19/19/19 18/18/18
f 20/20/20 21/21/21 19/19/19
f 8/8/8 21/21/21 20/20/20
f 8/8/8 10/10/10 21/21/21
f 13/13/13 22/22/22 23/23/23
f 13/13/13 24/24/24 22/22/22
f 25/25/25 24/24/24 13/13/13
f 25/25/25 26/26/26 24/24/24
f 27/27/27 26/26/26 25/25/25
f 27/27/27 28/28/28 26/26/26
f 29/29/29 28/28/28 27/27/27
f 29/29/29 30/30/30 28/28/28
f 19/19/19 30/30/30 29/29/29
f 19/19/19 21/21/21 30/30/30
f 22/22/22 31/31/31 32/32/32
f 22/22/22 33/33/33 31/31/31
f 34/34/34 33/33/33 22/22/22
f 34/34/34 35/35/35 33/33/33
f 36/36/36 35/35/35 34/34/34
f 36/36/36 37/37/37 35/35/35
f 38/38/38 37/37/37 36/36/36
f 38/38/38 39/39/39 37/37/37
f 28/28/28 39/39/39 38/38/38
f 28/28/28 30/30/30 39/39/39
f 40/40/40 1/1/1 41/41/41
f 40/40/40 42/42/42 1/1/1
f 43/43/43 42/42/42 40/40/40
f 43/43/43 44/44/44 42/42/42
f 45/45/45 44/44/44 43/43/43
f 45/45/45 11/11/11 44/44/44
f 46/46/46 11/11/11 45/45/45
f 46/46/46 12/12/12 11/11/11
f 47/47/47 12/12/12 46/46/46
f 48/48/48 37/37/37 39/39/39
f 48/48/48 49/49/49 37/37/37
f 50/50/50 49/49/49 48/48/48
f 50/50/50 51/51/51 49/49/49
f 52/52/52 51/51/51 50/50/50
f 52/52/52 53/53/53 51/51/51
f 54/54/54 53/53/53 52/52/52
f 54/54/54 31/31/31 53/53/53
f 55/55/55 43/43/43 40/40/40
f 55/55/55 45/45/45 43/43/43
f 56/56/56 45/45/45 55/55/55
f 56/56/56 46/46/46 45/45/45
f 47/47/47 46/46/46 56/56/56
f 42/42/42 5/5/5 1/1/1
f 42/42/42 7/7/7 5/5/5
f 44/44/44 7/7/7 42/42/42
f 44/44/44 9/9/9 7/7/7
f 11/11/11 9/9/9 44/44/44
f 4/4/4 16/16/16 2/2/2
f 4/4/4 18/18/18 16/16/16
f 6/6/6 18/18/18 4/4/4
f 6/6/6 20/20/20 18/18/18
f 8/8/8 20/20/20 6/6/6
f 15/15/15 25/25/25 13/13/13
f 15/15/15 27/27/27 25/25/25
f 17/17/17 27/27/27 15/15/15
f 17/17/17 29/29/29 27/27/27
f 19/19/19 29/29/29 17/17/17
f 24/24/24 34/34/34 22/22/22
f 24/24/24 36/36/36 34/34/34
f 26/26/26 36/36/36 24/24/24
f 26/26/26 38/38/38 36/36/36
f 28/28/28 38/38/38 26/26/26
f 33/33/33 53/53/53 31/31/31
f 33/33/33 51/51/51 53/53/53
f 35/35/35 51/51/51 33/33/33
f 35/35/35 49/49/49 51/51/51
f 37/37/37 49/49/49 35/35/35
f 57/57/57 40/40/40 58/58/58
f 57/57/57 55/55/55 40/40/40
f 59/59/59 60/60/60 61/61/61
f 59/59/59 62/62/62 60/60/60
f 62/62/62 63/63/63 60/60/60
f 62/62/62 64/64/64 63/63/63
f 64/64/64 65/65/65 63/63/63
f 64/64/64 66/66/66 65/65/65
f 66/66/66 67/67/67 65/65/65
f 66/66/66 68/68/68 67/67/67
f 69/69/69 70/70/70 71/71/71
f 69/69/69 72/72/72 70/70/70
f 68/68/68 72/72/72 67/67/67
f 68/68/68 70/70/70 72/72/72
f 50/50/50 48/48/48 73/73/73

v 0.000000 1.736133 -4.774658
v -4.760742 1.736133 -0.000244
v -4.736816 1.736133 -4.777588
v 0.000000 1.736133 0.002441
v 4.797852 1.736133 -0.000244
v 0.000000 1.736133 4.769775
v 4.810791 1.736133 4.767090
v 5.638428 3.981982 4.228027
v 4.449707 5.176806 4.405029
v 5.213623 3.983203 5.170898
v 4.793213 5.176806 3.607666
v 5.641357 3.981982 -4.262207
v 4.793213 5.176806 -3.631104
v 4.449707 5.176806 -4.428467
v 5.214111 3.981982 -5.197266
v 5.989014 2.484912 -4.523682
v 5.976074 2.484912 4.471436
v 4.797852 1.736133 -0.000244
v 4.810791 1.736133 4.767090
v 4.273438 3.981982 -5.625244
v 3.652344 5.176806 -4.771973
v 4.449707 5.176806 -4.428467
v -3.586426 5.176807 -4.771973
v -4.214844 3.981983 -5.625244
v -4.383789 5.176807 -4.428467
v -5.156006 3.981983 -5.198486
v -4.212891 3.981983 5.596680
v -3.586426 5.176807 4.748535
v -4.383789 5.176807 4.405029
v 3.652344 5.176806 4.748535
v 4.274658 3.981982 5.594971
v 4.449707 5.176806 4.405029
v 5.213623 3.983203 5.170898
v -5.580566 3.981983 -4.260498
v -4.727295 5.176807 -3.631104
v -4.383789 5.176807 -4.428467
v -4.727295 5.176807 3.607666
v -5.581787 3.981983 4.229736
v -4.383789 5.176807 4.405029
v -5.158691 3.977832 5.171143
v 3.388916 5.651904 -3.378906
v 4.793213 5.176806 -3.631104
v 4.449707 5.176806 -4.428467
v 4.793213 5.176806 3.607666
v 3.388916 5.651904 3.338623
v 4.449707 5.176806 4.405029
v 3.652344 5.176806 4.748535
v -3.328857 5.651905 3.338623
v -4.727295 5.176807 3.607666
v -4.383789 5.176807 4.405029
v -4.727295 5.176807 -3.631104
v -3.328857 5.651905 -3.378906
v -4.383789 5.176807 -4.428467
v -3.586426 5.176807 -4.771973
v 0.000000 6.121387 0.002441
v 5.214111 3.981982 -5.197266
v 4.520508 2.484912 -5.970215
v 5.517578 2.484912 -5.495117
v 4.810791 1.736133 -4.777588
v -4.466309 2.484912 -5.969971
v 0.000000 1.736133 -4.774658
v -4.736816 1.736133 -4.777588
v -5.158691 3.977832 5.171143
v -4.457031 2.484912 5.943359
v -5.472412 2.484912 5.474854
v -4.736816 1.736133 4.767090
v 4.526123 2.484912 5.936035
v 0.000000 1.736133 4.769775
v 4.810791 1.736133 4.767090
v -5.156006 3.981983 -5.198486
v -5.925049 2.484912 -4.515625
v -5.466064 2.484912 -5.501465
v -4.736816 1.736133 -4.777588
v -5.930420 2.484912 4.479248
v -4.760742 1.736133 -0.000244
v -4.736816 1.736133 4.767090
v 5.517578 2.484912 -5.495117
v 4.810791 1.736133 -4.777588
v -5.466064 2.484912 -5.501465
v -5.472412 2.484912 5.474854
v -4.736816 1.736133 4.767090
v 5.517822 2.484912 5.481445
v 5.517822 2.484912 5.481445
v 3.652344 5.176806 -4.771973
v -3.586426 5.176807 4.748535
v 4.810791 1.736133 -4.777588

vt 0.004028 0.235535
vt 0.226379 0.004852
vt 0.226135 0.235535
vt 0.004028 0.004730
vt 0.226379 0.004852
vt 0.004028 0.235535
vt 0.226135 0.235535
vt 0.126801 0.882599
vt 0.092438 0.992126
vt 0.027130 0.882599
vt 0.169983 0.992126
vt 0.878998 0.882599
vt 0.817078 0.992126
vt 0.897125 0.992126
vt 0.973877 0.882599
vt 0.895203 0.757141
vt 0.109222 0.757141
vt 0.500580 0.658478
vt 0.084747 0.658478
vt 0.126709 0.882599
vt 0.169983 0.992126
vt 0.092438 0.992126
vt 0.816956 0.992126
vt 0.879303 0.882599
vt 0.897125 0.992126
vt 0.973877 0.882599
vt 0.126801 0.882599
vt 0.169983 0.992126
vt 0.092438 0.992126
vt 0.818329 0.992126
vt 0.879242 0.882599
vt 0.897125 0.992126
vt 0.973877 0.882599
vt 0.126617 0.882599
vt 0.169983 0.992126
vt 0.092438 0.992126
vt 0.817261 0.992126
vt 0.877594 0.882599
vt 0.897125 0.992126
vt 0.973877 0.882599
vt 0.897583 0.521881
vt 0.985809 0.537720
vt 0.964233 0.587799
vt 0.985809 0.083008
vt 0.897583 0.099915
vt 0.964233 0.032928
vt 0.914154 0.011353
vt 0.475616 0.099915
vt 0.387787 0.083008
vt 0.409363 0.032928
vt 0.387787 0.537720
vt 0.475616 0.521881
vt 0.409363 0.587799
vt 0.459442 0.609375
vt 0.684723 0.309479
vt 0.027100 0.882599
vt 0.110199 0.756470
vt 0.017334 0.756714
vt 0.085114 0.658478
vt 0.896118 0.756470
vt 0.502411 0.658478
vt 0.918701 0.658478
vt 0.027130 0.882599
vt 0.109375 0.756409
vt 0.017334 0.756714
vt 0.085114 0.658478
vt 0.894531 0.756409
vt 0.499115 0.658478
vt 0.919586 0.658478
vt 0.027100 0.882599
vt 0.109833 0.756836
vt 0.017334 0.756714
vt 0.084747 0.658478
vt 0.894745 0.756836
vt 0.501282 0.658478
vt 0.920654 0.658478
vt 0.986633 0.757141
vt 0.919189 0.658478
vt 0.986694 0.756470
vt 0.986969 0.756836
vt 0.226135 0.235535
vt 0.017334 0.756714
vt 0.986725 0.756409
vt 0.914154 0.609375
vt 0.459442 0.011353
vt 0.226135 0.235535

vn -0.000000 -0.961122 -0.276123
vn -0.281373 -0.959598 -0.000122
vn -0.252130 -0.934122 -0.252680
vn -0.000000 -1.000000 0.000000
vn 0.278017 -0.960576 0.000305
vn 0.000183 -0.959777 0.280762
vn 0.257754 -0.931650 0.256106
vn 0.879263 0.435786 0.192320
vn 0.409356 0.815478 0.409173
vn 0.625548 0.468199 0.624083
vn 0.590938 0.800103 0.103088
vn 0.876795 0.440381 -0.193121
vn 0.590390 0.800594 -0.102416
vn 0.409235 0.815662 -0.408929
vn 0.623240 0.469062 -0.625742
vn 0.922127 -0.329349 -0.203005
vn 0.923821 -0.330869 0.192564
vn 0.278017 -0.960576 0.000305
vn 0.257754 -0.931650 0.256106
vn 0.193297 0.439634 -0.877131
vn 0.102968 0.800737 -0.590100
vn 0.409235 0.815662 -0.408929
vn -0.102596 0.800811 -0.590065
vn -0.192630 0.440253 -0.876967
vn -0.408553 0.816191 -0.408553
vn -0.624020 0.470640 -0.623776
vn -0.192625 0.439449 0.877371
vn -0.102536 0.800816 0.590068
vn -0.408207 0.816110 0.409062
vn 0.102844 0.800537 0.590393
vn 0.192262 0.437625 0.878362
vn 0.409356 0.815478 0.409173
vn 0.625548 0.468199 0.624083
vn -0.876958 0.440432 -0.192262
vn -0.589722 0.801086 -0.102417
vn -0.408553 0.816191 -0.408553
vn -0.589345 0.801316 0.102781
vn -0.876639 0.441280 0.191771
vn -0.408207 0.816110 0.409062
vn -0.624076 0.469843 0.624321
vn 0.149415 0.977242 -0.150575
vn 0.590390 0.800594 -0.102416
vn 0.409235 0.815662 -0.408929
vn 0.590938 0.800103 0.103088
vn 0.149537 0.977485 0.148866
vn 0.409356 0.815478 0.409173
vn 0.102844 0.800537 0.590393
vn -0.150266 0.977337 0.149106
vn -0.589345 0.801316 0.102781
vn -0.408207 0.816110 0.409062
vn -0.589722 0.801086 -0.102417
vn -0.150085 0.977111 -0.150757
vn -0.408553 0.816191 -0.408553
vn -0.102596 0.800811 -0.590065
vn -0.000977 0.999999 0.000732
vn 0.623240 0.469062 -0.625742
vn 0.199460 -0.332758 -0.921677
vn 0.674364 -0.290155 -0.679002
vn 0.255746 -0.932953 -0.253365
vn -0.197995 -0.333125 -0.921860
vn -0.000000 -0.961122 -0.276123
vn -0.252130 -0.934122 -0.252680
vn -0.624076 0.469843 0.624321
vn -0.195372 -0.330075 0.923515
vn -0.678515 -0.288019 0.675768
vn -0.251898 -0.933250 0.256110
vn 0.195131 -0.329836 0.923651
vn 0.000183 -0.959777 0.280762
vn 0.257754 -0.931650 0.256106
vn -0.624020 0.470640 -0.623776
vn -0.922252 -0.331852 -0.198306
vn -0.677735 -0.290955 -0.675293
vn -0.252130 -0.934122 -0.252680
vn -0.922980 -0.331423 0.195619
vn -0.281373 -0.959598 -0.000122
vn -0.251898 -0.933250 0.256110
vn 0.674364 -0.290155 -0.679002
vn 0.255746 -0.932953 -0.253365
vn -0.677735 -0.290955 -0.675293
vn -0.678515 -0.288019 0.675768
vn -0.251898 -0.933250 0.256110
vn 0.678396 -0.285702 0.676870
vn 0.678396 -0.285702 0.676870
vn 0.102968 0.800737 -0.590100
vn -0.102536 0.800816 0.590068
vn 0.255746 -0.932953 -0.253365

g polygon1
s 1
usemtl mat1
f 74/74/74 75/75/75 76/76/76
f 74/74/74 77/77/77 75/75/75
f 78/78/78 77/77/77 74/74/74
f 78/78/78 79/79/79 77/77/77
f 80/80/80 79/79/79 78/78/78
f 81/81/81 82/82/82 83/83/83
f 81/81/81 84/84/84 82/82/82
f 85/85/85 84/84/84 81/81/81
f 85/85/85 86/86/86 84/84/84
f 87/87/87 86/86/86 85/85/85
f 85/85/85 88/88/88 87/87/87
f 85/85/85 89/89/89 88/88/88
f 90/90/90 89/89/89 85/85/85
f 90/90/90 91/91/91 89/89/89
f 92/92/92 91/91/91 90/90/90
f 93/93/93 94/94/94 95/95/95
f 93/93/93 96/96/96 94/94/94
f 97/97/97 96/96/96 93/93/93
f 97/97/97 98/98/98 96/96/96
f 99/99/99 98/98/98 97/97/97
f 100/100/100 101/101/101 102/102/102
f 100/100/100 103/103/103 101/101/101
f 104/104/104 103/103/103 100/100/100
f 104/104/104 105/105/105 103/103/103
f 106/106/106 105/105/105 104/104/104
f 107/107/107 108/108/108 109/109/109
f 107/107/107 110/110/110 108/108/108
f 111/111/111 110/110/110 107/107/107
f 111/111/111 112/112/112 110/110/110
f 113/113/113 112/112/112 111/111/111
f 114/114/114 115/115/115 116/116/116
f 114/114/114 117/117/117 115/115/115
f 118/118/118 117/117/117 114/114/114
f 118/118/118 119/119/119 117/117/117
f 120/120/120 119/119/119 118/118/118
f 121/121/121 122/122/122 123/123/123
f 121/121/121 124/124/124 122/122/122
f 125/125/125 124/124/124 121/121/121
f 125/125/125 126/126/126 124/124/124
f 127/127/127 126/126/126 125/125/125
f 125/125/125 114/114/114 127/127/127
f 125/125/125 128/128/128 114/114/114
f 121/121/121 128/128/128 125/125/125
f 121/121/121 118/118/118 128/128/128
f 120/120/120 118/118/118 121/121/121
f 129/129/129 93/93/93 95/95/95
f 129/129/129 130/130/130 93/93/93
f 131/131/131 130/130/130 129/129/129
f 131/131/131 132/132/132 130/130/130
f 130/130/130 97/97/97 93/93/93
f 130/130/130 133/133/133 97/97/97
f 134/134/134 133/133/133 130/130/130
f 134/134/134 135/135/135 133/133/133
f 136/136/136 100/100/100 102/102/102
f 136/136/136 137/137/137 100/100/100
f 138/138/138 137/137/137 136/136/136
f 138/138/138 139/139/139 137/137/137
f 137/137/137 104/104/104 100/100/100
f 137/137/137 140/140/140 104/104/104
f 141/141/141 140/140/140 137/137/137
f 141/141/141 142/142/142 140/140/140
f 143/143/143 107/107/107 109/109/109
f 143/143/143 144/144/144 107/107/107
f 145/145/145 144/144/144 143/143/143
f 145/145/145 146/146/146 144/144/144
f 144/144/144 111/111/111 107/107/107
f 144/144/144 147/147/147 111/111/111
f 148/148/148 147/147/147 144/144/144
f 148/148/148 149/149/149 147/147/147
f 89/89/89 150/150/150 88/88/88
f 89/89/89 151/151/151 150/150/150
f 91/91/91 151/151/151 89/89/89
f 133/133/133 99/99/99 97/97/97
f 133/133/133 152/152/152 99/99/99
f 135/135/135 152/152/152 133/133/133
f 147/147/147 113/113/113 111/111/111
f 147/147/147 153/153/153 113/113/113
f 149/149/149 153/153/153 147/147/147
f 79/79/79 75/75/75 77/77/77
f 79/79/79 154/154/154 75/75/75
f 81/81/81 90/90/90 85/85/85
f 81/81/81 83/83/83 90/90/90
f 155/155/155 90/90/90 83/83/83
f 155/155/155 92/92/92 90/90/90
f 156/156/156 140/140/140 142/142/142
f 156/156/156 106/106/106 140/140/140
f 157/157/157 114/114/114 116/116/116
f 157/157/157 127/127/127 114/114/114
f 121/121/121 158/158/158 120/120/120
f 121/121/121 123/123/123 158/158/158
f 159/159/159 78/78/78 74/74/74
f 130/130/130 132/132/132 134/134/134
f 139/139/139 141/141/141 137/137/137
f 104/104/104 140/140/140 106/106/106
f 146/146/146 148/148/148 144/144/144
f 114/114/114 128/128/128 118/118/118

